FFmpeg version SVN-r25716, Copyright (c) 2000-2010 the FFmpeg developers  built on Nov 10 2010 12:23:18 with gcc 4.1.2 20080704 (Red Hat 4.1.2-48)  configuration: --enable-libmp3lame --enable-shared --disable-mmx --arch=x86_64  libavutil     50.33. 0 / 50.33. 0  libavcore      0.12. 1 /  0.12. 1  libavcodec    52.94. 4 / 52.94. 4  libavformat   52.84. 0 / 52.84. 0  libavdevice   52. 2. 2 / 52. 2. 2  libavfilter    1.59. 0 /  1.59. 0  libswscale     0.12. 0 /  0.12. 0Input #0, avi, from '/RAID10/data/converted_video_files/47557.avi':  Duration: 00:00:04.70, start: 0.000000, bitrate: 31532 kb/s    Stream #0.0: Video: msvideo1, rgb555le, 1024x1024, 30 tbr, 30 tbn, 30 tbc[buffer @ 0x1f7ac380] w:1024 h:1024 pixfmt:rgb555le[ffsink @ 0x1f7ab700] auto-inserting filter 'auto-inserted scaler 0' between the filter 'src' and the filter 'out'[scale @ 0x1f7ab9f0] w:1024 h:1024 fmt:rgb555le -> w:1024 h:1024 fmt:yuv420p flags:0x4Output #0, flv, to '/RAID10/data/converted_video_files/47557.flv':  Metadata:    encoder         : Lavf52.84.0    Stream #0.0: Video: flv, yuv420p, 1024x1024, q=2-31, 600 kb/s, 1k tbn, 24 tbcStream mapping:  Stream #0.0 -> #0.0Press [q] to stop encodingframe=    7 fps=  0 q=9.5 size=     613kB time=0.29 bitrate=17188.7kbits/s dup=0 drop=1    frame=   14 fps= 12 q=27.1 size=     693kB time=0.58 bitrate=9742.9kbits/s dup=0 drop=3    frame=   23 fps= 14 q=31.0 size=     712kB time=0.96 bitrate=6084.6kbits/s dup=0 drop=6    frame=   33 fps= 15 q=31.0 size=     755kB time=1.38 bitrate=4498.0kbits/s dup=0 drop=8    frame=   42 fps= 15 q=31.0 size=     791kB time=1.75 bitrate=3704.4kbits/s dup=0 drop=10    frame=   51 fps= 16 q=31.0 size=     827kB time=2.12 bitrate=3189.7kbits/s dup=0 drop=12    frame=   61 fps= 16 q=24.8 size=     862kB time=2.54 bitrate=2777.7kbits/s dup=0 drop=15    frame=   71 fps= 17 q=31.0 size=     873kB time=2.96 bitrate=2417.2kbits/s dup=0 drop=17    frame=   80 fps= 17 q=31.0 size=     909kB time=3.33 bitrate=2233.3kbits/s dup=0 drop=20    frame=   89 fps= 17 q=31.0 size=     943kB time=3.71 bitrate=2084.0kbits/s dup=0 drop=22    frame=   98 fps= 17 q=31.0 size=     978kB time=4.08 bitrate=1961.6kbits/s dup=0 drop=24    frame=  107 fps= 17 q=31.0 size=     985kB time=4.46 bitrate=1810.4kbits/s dup=0 drop=26    frame=  113 fps= 17 q=31.0 Lsize=    1047kB time=4.71 bitrate=1821.9kbits/s dup=0 drop=28    video:1045kB audio:0kB global headers:0kB muxing overhead 0.188570%